<?xml version="1.0" standalone="no"?>
<!DOCTYPE svg PUBLIC "-//W3C//DTD SVG 20010904//EN"
 "http://www.w3.org/TR/2001/REC-SVG-20010904/DTD/svg10.dtd">
<svg version="1.0" xmlns="http://www.w3.org/2000/svg"
 width="300.000000pt" height="466.000000pt" viewBox="0 0 300.000000 466.000000"
 preserveAspectRatio="xMidYMid meet">
<metadata>
Created by potrace 1.10, written by Peter Selinger 2001-2011
</metadata>
<g transform="translate(0.000000,466.000000) scale(0.100000,-0.100000)"
fill="#000000" stroke="none">
<path d="M2130 4356 c0 -39 3 -45 30 -56 45 -18 72 3 74 58 2 43 -9 53 -32 30
-10 -10 -17 -10 -32 0 -33 20 -40 14 -40 -32z m80 -12 c0 -41 -42 -39 -52 2
-5 18 -1 21 23 20 23 -1 29 -6 29 -22z"/>
<path d="M2270 4355 c0 -35 4 -45 16 -45 12 0 15 6 10 24 -5 20 -2 24 17 24
20 0 23 -5 19 -24 -2 -13 0 -24 6 -24 5 0 12 20 14 45 2 25 2 45 0 45 -1 0
-11 -6 -22 -12 -15 -10 -22 -10 -32 0 -21 21 -28 13 -28 -33z"/>
<path d="M2452 4367 c-10 -28 -18 -34 -42 -35 -20 0 -30 4 -30 14 0 10 7 14
20 12 10 -2 19 2 20 7 1 17 -36 17 -50 0 -31 -37 45 -71 93 -41 14 8 20 8 27
-4 17 -27 23 -1 8 37 -20 48 -31 51 -46 10z"/>
<path d="M2527 4393 c-11 -10 -8 -83 3 -83 9 0 14 23 13 58 -1 6 3 12 8 12 5
0 9 5 9 10 0 11 -23 14 -33 3z"/>
<path d="M2569 4364 c-16 -20 -1 -48 30 -52 28 -4 27 15 -1 21 -20 4 -19 4 5
6 29 1 34 10 15 29 -16 16 -33 15 -49 -4z"/>
<path d="M2647 4373 c-4 -3 -7 -17 -7 -30 0 -27 21 -39 48 -28 15 7 14 9 -8
15 l-25 8 28 1 c29 1 34 10 15 29 -13 13 -41 16 -51 5z"/>
<path d="M1167 4204 c-14 -15 -6 -34 14 -34 14 0 19 5 17 17 -3 18 -20 27 -31
17z"/>
<path d="M249 4198 c0 -2 -1 -38 -2 -80 -2 -72 -1 -78 18 -78 18 0 20 7 20 80
1 71 -1 80 -17 80 -10 0 -18 -1 -19 -2z"/>
<path d="M840 4172 c0 -26 -3 -29 -25 -24 -34 6 -55 -14 -55 -54 0 -34 33 -69
54 -57 6 4 22 6 36 5 25 -2 25 -1 24 76 -1 63 -4 78 -17 80 -13 3 -17 -4 -17
-26z m0 -77 c0 -18 -5 -25 -19 -25 -11 0 -23 5 -26 10 -11 18 3 40 25 40 15 0
20 -7 20 -25z"/>
<path d="M460 4168 c0 -10 -4 -18 -10 -18 -5 0 -10 -7 -10 -15 0 -8 5 -15 10
-15 6 0 10 -16 10 -35 0 -35 29 -63 50 -50 15 9 12 32 -5 39 -8 3 -15 15 -15
26 0 11 7 20 15 20 8 0 15 7 15 15 0 8 -4 15 -9 15 -5 0 -11 8 -13 18 -7 24
-38 24 -38 0z"/>
<path d="M573 4153 c-33 -4 -33 -5 -33 -59 0 -48 2 -54 21 -54 19 0 20 4 15
36 -6 31 -4 36 13 41 12 3 21 14 21 24 0 11 -1 18 -2 17 -2 0 -18 -3 -35 -5z"/>
<path d="M1069 4146 c-17 -8 -25 -22 -27 -44 -5 -51 29 -78 76 -61 29 11 19
35 -16 34 -20 0 -27 5 -27 20 0 15 8 21 33 23 18 2 32 8 30 14 -7 19 -44 27
-69 14z"/>
<path d="M1382 4144 c-26 -18 -29 -65 -6 -88 19 -19 36 -20 53 -3 10 10 12 8
9 -8 -3 -15 -11 -20 -37 -20 -41 0 -53 -22 -17 -31 66 -16 96 17 96 107 0 48
-1 49 -28 47 -15 -1 -32 1 -38 5 -6 3 -20 -1 -32 -9z m58 -44 c0 -24 -26 -38
-42 -22 -16 16 -2 42 22 42 13 0 20 -7 20 -20z"/>
<path d="M310 4094 c0 -47 2 -54 20 -54 17 0 20 7 20 40 0 33 3 40 20 40 17 0
20 -7 20 -40 0 -34 3 -40 21 -40 19 0 21 4 15 31 -3 17 -6 42 -6 55 0 22 -4
23 -55 23 l-55 -1 0 -54z"/>
<path d="M637 4132 c-10 -10 -17 -28 -17 -39 0 -44 70 -72 105 -43 18 15 20
71 3 88 -18 18 -73 14 -91 -6z m68 -37 c0 -13 -8 -21 -22 -23 -19 -3 -23 1
-23 23 0 22 4 26 23 23 14 -2 22 -10 22 -23z"/>
<path d="M900 4108 c0 -59 8 -67 65 -66 l50 0 0 54 c0 45 -3 54 -17 54 -14 0
-18 -9 -18 -40 0 -33 -3 -40 -20 -40 -17 0 -20 7 -20 40 0 33 -3 40 -20 40
-17 0 -20 -7 -20 -42z"/>
<path d="M1160 4095 c0 -48 2 -55 20 -55 18 0 20 7 20 55 0 48 -2 55 -20 55
-18 0 -20 -7 -20 -55z"/>
<path d="M1220 4094 c0 -47 2 -54 20 -54 17 0 20 7 20 40 0 33 3 40 20 40 17
0 20 -7 20 -40 0 -33 3 -40 20 -40 16 0 20 7 20 33 0 69 -7 76 -66 76 l-54 -1
0 -54z"/>
<path d="M758 3959 c-10 -5 -18 -17 -18 -24 0 -8 -4 -15 -10 -15 -5 0 -10 -7
-10 -15 0 -8 5 -15 10 -15 6 0 10 -18 10 -40 0 -29 4 -40 15 -40 11 0 15 11
15 40 0 29 4 40 15 40 8 0 15 7 15 15 0 8 -7 15 -15 15 -8 0 -15 5 -15 10 0 6
7 10 16 10 9 0 14 5 12 12 -6 17 -20 19 -40 7z"/>
<path d="M245 3885 c0 -70 2 -75 21 -75 19 0 21 4 16 53 -5 60 6 56 29 -11 9
-26 20 -46 25 -44 5 1 16 22 24 46 22 66 34 69 27 9 -6 -50 -5 -53 16 -53 21
0 22 4 22 75 l0 76 -30 -3 c-24 -2 -32 -10 -41 -38 -14 -42 -25 -41 -40 3 -8
25 -17 33 -40 35 l-29 3 0 -76z"/>
<path d="M586 3889 c-14 -38 -26 -72 -26 -75 0 -2 9 -4 20 -4 11 0 20 5 20 10
0 6 15 10 34 10 19 0 38 -4 41 -10 3 -5 15 -10 25 -10 17 0 16 5 -8 75 -24 67
-30 75 -53 75 -24 0 -29 -8 -53 -71z m69 -1 c6 -24 4 -28 -14 -28 -22 0 -25
10 -15 48 8 27 20 19 29 -20z"/>
<path d="M1100 3920 c0 -14 -7 -20 -21 -20 -12 0 -19 -5 -16 -12 2 -7 11 -12
21 -10 11 2 16 -4 16 -23 0 -16 6 -25 15 -25 9 0 15 10 15 26 0 21 4 24 20 19
14 -5 20 -2 20 9 0 9 -9 16 -20 16 -13 0 -20 7 -20 20 0 11 -7 20 -15 20 -8 0
-15 -9 -15 -20z"/>
<path d="M462 3908 c-6 -6 -12 -27 -12 -45 0 -44 39 -71 76 -54 27 12 24 33
-4 30 -36 -3 -43 1 -40 24 2 17 10 22 33 22 20 0 30 5 30 15 0 19 -65 26 -83
8z"/>
<path d="M822 3908 c-24 -31 -23 -57 2 -83 26 -26 51 -31 76 -15 19 12 6 24
-27 25 -14 0 -28 5 -30 10 -2 7 12 9 37 7 34 -4 40 -1 40 15 0 42 -73 72 -98
41z m52 -14 c25 -9 19 -24 -9 -24 -24 0 -32 10 -18 23 8 8 8 8 27 1z"/>
<path d="M952 3908 c-7 -7 -12 -27 -12 -45 0 -40 36 -69 76 -59 33 9 26 30
-11 31 -15 0 -30 5 -32 10 -2 7 12 9 37 7 34 -4 40 -1 40 15 0 42 -69 70 -98
41z m52 -14 c25 -9 19 -24 -9 -24 -24 0 -32 10 -18 23 8 8 8 8 27 1z"/>
<path d="M253 3667 c-10 -21 -8 -23 28 -24 45 -2 56 9 32 33 -17 16 -18 16
-24 -7 -4 -15 -7 -17 -8 -7 -2 27 -17 29 -28 5z"/>
<path d="M340 3668 c0 -16 5 -28 10 -28 6 0 10 6 10 13 0 8 3 8 8 1 11 -17 86
-13 94 5 6 14 7 13 7 -1 1 -11 9 -18 22 -18 32 0 20 32 -13 36 -16 1 -28 -2
-28 -9 0 -8 -3 -8 -12 1 -8 8 -15 9 -25 1 -9 -8 -17 -8 -26 0 -8 6 -17 8 -21
4 -4 -4 -11 -1 -16 7 -7 11 -10 8 -10 -12z"/>
<path d="M740 3670 c-1 -23 -2 -23 -10 -5 -7 17 -9 17 -9 3 -1 -10 -6 -18 -12
-18 -6 0 -8 7 -5 16 5 14 4 15 -8 5 -11 -9 -16 -9 -22 0 -5 9 -11 7 -21 -6 -9
-14 -13 -15 -13 -4 0 10 -13 14 -50 14 -45 0 -50 -2 -50 -22 0 -16 5 -20 20
-16 11 3 20 10 20 15 0 7 5 7 13 0 16 -13 154 -14 162 -1 4 5 12 9 18 9 7 0 6
-4 -3 -10 -12 -8 -11 -10 8 -10 12 0 22 6 22 13 0 8 4 7 10 -3 8 -12 10 -11
10 7 0 18 -5 21 -35 19 -19 -2 -36 2 -39 8 -2 6 -5 0 -6 -14z"/>
<path d="M847 3683 c-4 -3 -7 -15 -7 -25 0 -15 7 -18 34 -16 42 3 59 34 17 32
-14 0 -29 3 -32 8 -3 4 -8 5 -12 1z"/>
<path d="M1401 3670 c-1 -20 4 -26 24 -28 16 -1 25 3 25 13 0 17 -17 29 -24
16 -4 -5 0 -12 6 -14 10 -4 10 -6 0 -6 -7 -1 -17 9 -22 22 -9 22 -9 22 -9 -3z"/>
<path d="M1547 3673 c-9 -10 -17 -13 -17 -7 0 5 -12 9 -27 8 -34 -1 -46 -34
-14 -34 12 0 21 6 21 13 0 7 3 8 8 2 4 -5 17 -11 30 -13 18 -3 22 2 22 22 0
31 -1 31 -23 9z"/>
<path d="M1651 3663 c0 -15 3 -22 6 -14 4 11 7 11 14 0 4 -7 11 -10 15 -6 4 4
-2 16 -14 27 l-22 21 1 -28z"/>
<path d="M973 3673 c-7 -2 -10 -10 -7 -17 8 -20 81 -19 88 1 9 23 1 26 -18 8
-11 -11 -16 -12 -16 -4 0 7 -3 9 -7 6 -3 -4 -11 -3 -17 2 -6 4 -16 6 -23 4z"/>
<path d="M1087 3673 c-4 -3 -7 -15 -7 -25 0 -15 4 -17 18 -10 9 5 28 8 41 6
14 -3 28 1 33 8 4 8 8 8 8 2 0 -16 80 -17 80 -1 0 8 3 8 8 2 4 -6 19 -12 35
-13 21 -1 27 3 27 17 0 13 -6 19 -19 18 -11 0 -17 -5 -15 -9 3 -4 1 -8 -5 -8
-5 0 -12 4 -15 8 -5 9 -53 8 -63 -1 -9 -10 -25 -9 -19 1 8 13 -64 6 -77 -7
-14 -14 -27 -14 -27 0 0 5 5 7 10 4 6 -3 10 -1 10 4 0 12 -13 14 -23 4z"/>
<path d="M1603 3673 c-7 -3 -13 -14 -13 -25 0 -14 5 -18 16 -14 9 3 20 6 25 6
14 0 11 27 -3 32 -7 3 -19 3 -25 1z"/>
<path d="M1700 3670 c-17 -10 5 -28 35 -27 17 0 24 2 17 4 -6 3 -10 9 -6 14 9
15 24 0 24 -24 1 -21 1 -21 15 3 8 14 14 27 15 30 0 7 -88 7 -100 0z"/>
<path d="M558 3573 c-31 -16 -35 -28 -13 -37 17 -6 45 19 45 40 0 8 -1 14 -2
13 -2 -1 -15 -8 -30 -16z"/>
<path d="M638 3572 c-18 -2 -28 -9 -28 -20 0 -15 2 -15 10 -2 9 13 10 13 10 0
0 -13 1 -13 10 0 6 10 10 11 10 3 0 -7 9 -13 20 -13 11 0 20 5 20 11 0 6 7 3
16 -5 18 -18 29 -14 36 12 4 15 -2 17 -36 17 -23 0 -53 -1 -68 -3z"/>
<path d="M858 3572 c-29 -6 -20 -28 12 -30 19 -1 30 2 30 10 0 10 2 10 9 0 4
-7 19 -15 33 -16 21 -2 26 1 26 21 0 12 -4 23 -9 23 -5 0 -9 -8 -9 -17 0 -11
-3 -14 -8 -7 -8 12 -57 22 -84 16z"/>
<path d="M1001 3571 c-21 -13 -6 -38 21 -36 22 2 40 35 19 35 -6 0 -11 -6 -12
-12 0 -7 -3 -5 -7 4 -5 12 -11 14 -21 9z"/>
<path d="M1061 3564 c-1 -13 7 -24 18 -27 22 -5 31 0 31 20 0 17 -30 17 -31 1
0 -7 -4 -4 -9 7 -8 19 -9 19 -9 -1z"/>
<path d="M1130 3562 c0 -10 3 -21 6 -24 10 -11 44 4 44 20 0 8 -3 12 -6 9 -4
-3 -15 -2 -25 4 -15 8 -19 6 -19 -9z"/>
<path d="M1263 3572 c-23 -2 -33 -8 -33 -21 0 -13 7 -17 32 -15 18 1 34 8 36
14 3 9 7 9 13 -1 7 -11 9 -11 9 2 0 20 -14 25 -57 21z"/>
<path d="M280 3560 c11 -7 11 -10 2 -10 -7 0 -11 -4 -7 -10 7 -12 32 -2 39 16
4 10 -2 14 -22 14 -21 0 -24 -2 -12 -10z"/>
<path d="M340 3543 c0 -22 2 -24 15 -13 13 11 13 15 3 21 -7 5 -9 9 -4 9 5 0
18 -8 29 -17 11 -10 17 -12 13 -5 -4 6 -2 12 3 12 6 0 11 4 11 9 0 5 -16 9
-35 9 -31 0 -35 -3 -35 -25z"/>
<path d="M420 3559 c0 -5 -1 -12 -2 -16 -2 -3 9 -7 24 -7 19 -1 26 3 25 15 -1
17 -47 25 -47 8z"/>
<path d="M480 3556 c0 -21 21 -31 30 -15 5 7 6 17 4 21 -9 14 -34 9 -34 -6z"/>
<path d="M764 3558 c-10 -15 6 -25 33 -21 22 4 25 2 13 -6 -13 -9 -13 -11 3
-11 11 0 17 8 17 24 0 21 -5 25 -30 24 -17 -1 -33 -5 -36 -10z"/>
<path d="M1330 3556 c0 -8 5 -18 12 -22 6 -4 8 -3 5 3 -4 6 0 13 8 17 9 3 15
0 15 -9 0 -8 5 -15 10 -15 6 0 10 9 10 20 0 16 -7 20 -30 20 -19 0 -30 -5 -30
-14z"/>
<path d="M252 3398 c-16 -16 -16 -200 0 -216 9 -9 119 -12 435 -12 354 0 423
2 430 14 4 8 6 61 3 118 l-5 103 -425 3 c-323 2 -429 -1 -438 -10z m825 -30
c20 -17 18 -154 -3 -162 -9 -3 -189 -6 -400 -6 -434 1 -399 -6 -403 87 -4 97
-32 91 408 92 264 0 389 -3 398 -11z"/>
<path d="M383 3339 c-7 -7 -13 -27 -13 -45 0 -57 -24 -53 396 -55 233 -1 238
1 232 63 l-3 33 -165 1 c-91 1 -178 5 -193 9 -18 5 -38 3 -52 -5 -16 -8 -39
-10 -67 -6 -106 17 -123 17 -135 5z m117 -29 c25 -4 50 -5 57 -3 10 4 10 -3
-1 -28 -15 -36 -42 -55 -32 -23 3 11 1 26 -4 34 -8 12 -10 11 -10 -7 0 -20 -5
-22 -60 -21 -57 1 -97 17 -48 19 17 1 18 3 6 6 -18 5 -24 24 -11 37 4 4 19 4
33 0 14 -4 45 -10 70 -14z m137 4 c5 -13 -26 -54 -42 -54 -3 0 -5 16 -5 35 0
29 4 35 20 35 11 0 23 -7 27 -16z m343 -19 c0 -27 -4 -35 -18 -35 -10 0 -23 5
-30 12 -9 9 -12 9 -12 1 0 -7 -13 -11 -30 -11 -17 1 -30 6 -30 14 0 19 -20 28
-33 15 -8 -8 -6 -11 6 -11 9 0 17 -4 17 -10 0 -14 -23 -13 -38 2 -9 9 -12 9
-12 0 0 -21 -30 -13 -41 11 l-10 22 5 -22 c2 -13 0 -23 -5 -23 -5 0 -14 10
-19 23 l-9 22 0 -22 c-1 -16 -7 -23 -20 -23 -11 0 -23 9 -27 23 l-8 22 -7 -25
-7 -25 -1 28 c-1 25 2 27 42 29 23 0 49 0 57 0 25 -3 84 -3 105 0 15 2 19 -2
17 -17 -2 -19 -2 -19 9 -2 8 13 18 17 35 13 14 -4 28 -1 36 9 21 23 28 18 28
-20z"/>
<path d="M1430 2569 l0 -584 319 -147 319 -147 316 147 316 147 2 582 c3 579
3 583 -17 577 -11 -4 -45 -19 -75 -34 -87 -43 -537 -250 -544 -250 -3 0 -142
63 -309 141 -166 77 -308 143 -314 146 -10 4 -13 -115 -13 -578z m106 495 c22
-9 84 -38 139 -64 55 -26 126 -59 158 -74 31 -14 82 -37 112 -51 30 -14 69
-28 86 -32 33 -6 45 -23 35 -49 -6 -15 -8 -15 -24 -2 -38 33 -349 178 -381
178 -6 0 -30 12 -53 26 -59 38 -92 45 -117 27 -20 -14 -21 -13 -21 21 0 41 9
44 66 20z m1124 -7 c0 -19 -6 -23 -37 -24 -23 0 -69 -17 -118 -43 -212 -112
-256 -134 -329 -161 -54 -20 -83 -26 -89 -20 -10 10 36 34 243 129 25 11 104
48 175 81 72 33 136 60 143 61 6 0 12 -10 12 -23z m-1033 -101 c65 -29 192
-88 283 -131 l165 -76 125 60 c108 51 390 182 428 198 10 4 12 -64 12 -332 -1
-277 2 -340 13 -354 21 -23 18 -217 -2 -213 -20 4 -40 33 -41 58 0 32 -11 36
-37 12 -27 -25 -31 -73 -8 -105 24 -34 1 -80 -37 -74 -5 0 -8 -4 -8 -10 0 -6
-6 -9 -12 -7 -7 3 -19 -1 -26 -9 -24 -24 -31 -3 -14 45 15 43 16 45 23 22 5
-17 7 -19 8 -7 1 24 -50 111 -59 100 -4 -4 -13 -23 -20 -40 -10 -28 -10 -39 4
-73 22 -55 20 -75 -6 -88 l-23 -11 23 0 c12 -1 22 3 22 8 0 8 15 15 70 36 50
18 82 43 75 56 -3 4 -1 10 5 14 16 10 12 43 -7 54 -10 6 -12 11 -6 11 9 0 10
7 4 23 -6 15 -4 31 5 47 13 25 13 25 14 -11 0 -21 7 -42 16 -50 19 -16 34 -50
26 -63 -2 -5 -11 2 -19 15 -8 14 -12 16 -9 6 3 -10 6 -23 6 -28 0 -6 9 -7 21
-4 17 6 20 3 17 -12 -3 -19 -33 -36 -205 -116 -109 -50 -146 -60 -122 -31 7 9
14 23 15 32 6 38 15 62 24 62 14 0 12 -43 -2 -60 -11 -12 -10 -12 5 -1 9 7 17
23 17 35 0 12 5 27 10 32 6 6 8 18 4 28 -6 15 -9 14 -26 -6 -11 -13 -30 -43
-43 -68 -22 -41 -33 -50 -144 -105 -83 -42 -120 -65 -120 -77 -1 -22 -24 -23
-42 -2 -10 13 -10 17 0 23 14 9 -87 70 -181 110 -53 22 -64 52 -28 71 11 6 20
19 20 29 0 10 11 23 24 29 21 9 30 7 62 -19 52 -41 104 -72 111 -66 6 6 -60
109 -82 127 -8 7 -15 20 -15 29 0 14 -2 14 -10 1 -5 -8 -7 -23 -4 -32 7 -22
-9 -23 -31 -2 -10 10 -15 32 -15 58 0 22 -2 53 -6 68 -5 24 -2 29 22 38 22 9
29 8 36 -5 5 -9 23 -15 42 -15 41 0 52 -13 59 -67 5 -45 -2 -53 -23 -28 -7 8
-20 15 -30 15 -13 0 -4 -15 33 -55 41 -45 52 -53 59 -40 5 8 7 19 4 24 -3 5
-8 32 -12 61 -13 104 -11 103 -101 126 -47 13 -86 18 -94 13 -10 -6 -14 -34
-14 -98 0 -63 -4 -94 -14 -103 -11 -11 -12 -9 -7 12 7 24 6 24 -8 6 -13 -16
-13 -22 -3 -28 19 -12 27 -10 37 15 7 17 9 18 9 4 1 -9 -19 -37 -44 -60 -54
-52 -57 -78 -15 -117 l31 -29 -33 9 c-18 5 -69 27 -113 49 -44 22 -110 54
-148 70 -62 28 -89 53 -73 68 3 4 16 -3 29 -14 24 -23 153 -90 177 -93 45 -6
50 -1 50 48 0 34 -3 43 -10 32 -5 -8 -10 -25 -10 -37 0 -13 -2 -23 -5 -23 -3
0 -50 22 -105 50 l-99 50 0 344 c-1 189 2 351 5 360 3 9 10 13 15 10 5 -3 9 2
9 10 0 9 -6 13 -14 10 -11 -4 -14 16 -15 110 0 64 1 116 3 116 3 0 58 -24 123
-54z m-140 -265 c3 -54 1 -96 -6 -108 -8 -13 -10 10 -11 96 0 134 10 141 17
12z m964 -662 l-8 -44 -7 47 c-9 50 0 82 15 56 5 -9 5 -35 0 -59z m-281 -244
c0 -7 -38 -26 -61 -30 -27 -5 -24 2 9 19 27 15 52 20 52 11z"/>
<path d="M2468 2872 c-8 -9 -14 -10 -22 -2 -19 19 -29 10 -11 -10 10 -11 24
-20 31 -20 16 0 74 33 74 42 0 12 -61 4 -72 -10z"/>
<path d="M2301 2836 c-27 -14 -40 -26 -33 -30 7 -4 12 -14 12 -21 0 -12 -5
-12 -25 -3 -18 8 -32 8 -54 -2 -37 -15 -55 -42 -76 -113 -9 -30 -22 -61 -30
-67 -8 -7 -15 -20 -15 -29 0 -12 5 -10 21 9 l20 25 -15 -32 c-9 -18 -16 -36
-16 -42 0 -5 -5 -22 -11 -38 -7 -15 -13 -36 -14 -46 -2 -16 0 -16 17 0 10 9
21 13 26 9 4 -4 -3 -16 -15 -26 -13 -10 -23 -27 -23 -38 0 -32 -40 -113 -56
-114 -41 -3 -43 -23 -4 -37 26 -8 30 -7 30 7 0 9 14 37 30 61 17 24 31 58 31
75 l2 31 4 -29 c4 -22 7 -26 14 -15 7 11 9 9 9 -7 0 -11 -9 -29 -21 -40 -12
-10 -28 -32 -37 -49 -15 -29 -14 -29 4 -15 18 15 18 14 1 -12 -21 -33 -21 -39
-2 -32 8 3 19 24 25 45 6 21 20 44 31 50 18 9 26 6 49 -16 20 -19 29 -23 33
-13 4 10 7 11 18 1 11 -11 10 -13 -4 -13 -9 0 -17 -5 -17 -11 0 -6 9 -8 21 -4
16 5 20 3 16 -6 -2 -8 -10 -13 -16 -11 -6 1 -11 -2 -11 -8 0 -14 15 -13 28 3
17 20 10 67 -11 67 -10 0 -27 5 -38 11 -27 14 -89 145 -89 187 0 61 33 162 65
198 30 34 90 60 100 44 3 -4 23 -11 45 -15 30 -5 40 -11 40 -25 0 -10 4 -21 9
-24 5 -4 5 10 0 32 -8 37 -39 72 -65 72 -8 0 -14 5 -14 11 0 6 10 9 22 7 29
-4 119 -122 111 -146 -4 -15 -3 -15 7 -2 9 12 10 11 5 -8 -4 -13 -1 -30 7 -39
11 -14 11 -16 -2 -8 -12 7 -13 6 -4 -6 11 -14 12 -18 15 -86 1 -29 3 -33 9
-18 4 11 5 36 2 57 -3 27 -1 37 11 40 13 3 13 7 -1 35 -55 106 -98 164 -134
182 -41 20 -40 31 2 31 20 0 42 -16 86 -62 32 -35 60 -70 62 -78 2 -8 8 -18
14 -21 5 -3 9 -8 8 -10 -5 -10 24 -56 45 -71 l24 -18 -24 57 c-12 31 -39 79
-60 107 l-37 51 36 -34 c20 -19 36 -32 36 -28 0 13 -63 77 -76 77 -7 0 -27 14
-44 30 -36 36 -51 36 -109 6z"/>
<path d="M1626 2781 c-4 -5 5 -30 18 -55 14 -26 27 -43 29 -39 8 12 -4 63 -14
63 -5 0 -9 6 -9 14 0 18 -17 30 -24 17z"/>
<path d="M2040 2678 c-24 -39 -24 -42 -5 -58 16 -14 35 -5 35 16 0 8 7 28 15
44 15 29 14 30 -5 30 -12 0 -28 -13 -40 -32z"/>
<path d="M1950 2682 c0 -39 -50 -57 -68 -26 -12 21 -33 9 -25 -13 4 -11 3 -14
-6 -9 -7 5 -17 2 -24 -7 -18 -22 -47 -29 -47 -12 0 8 8 15 18 15 10 0 18 8 19
19 1 16 -5 19 -28 19 -16 -1 -29 -7 -29 -14 0 -6 -15 -21 -32 -33 -18 -11 -27
-21 -20 -21 6 0 12 -9 12 -20 0 -15 7 -20 28 -20 15 0 33 5 39 11 7 7 17 8 25
3 7 -5 25 -7 40 -5 20 2 28 -2 28 -13 0 -18 16 -21 25 -5 4 5 18 14 31 19 13
5 24 17 25 27 5 83 4 103 -3 103 -4 0 -8 -8 -8 -18z"/>
<path d="M1517 2664 c-3 -3 -1 -18 5 -33 6 -14 11 -35 12 -46 1 -16 8 -20 34
-17 18 1 32 -3 32 -9 0 -6 8 -8 19 -4 11 3 22 1 26 -5 4 -7 18 -9 31 -6 16 4
26 1 33 -11 6 -10 11 -12 11 -6 0 7 -12 20 -27 30 -16 9 -40 27 -54 41 -17 15
-29 20 -33 13 -4 -6 -15 -11 -26 -11 -19 0 -30 19 -30 51 0 18 -20 26 -33 13z"/>
<path d="M2170 2590 c23 -18 50 -26 50 -15 0 6 -56 35 -67 35 -4 0 3 -9 17
-20z"/>
<path d="M2140 2571 c0 -18 40 -52 58 -49 26 5 20 33 -8 36 -14 2 -31 9 -37
14 -9 7 -13 7 -13 -1z"/>
<path d="M2544 2565 c2 -11 8 -39 11 -62 4 -24 10 -43 15 -43 4 0 7 -12 7 -27
0 -34 24 -93 30 -75 3 6 9 10 14 6 19 -11 8 16 -12 29 -11 8 -16 17 -11 21 5
3 6 20 4 38 -5 30 -4 32 12 19 21 -18 -17 46 -52 87 -19 22 -22 24 -18 7z"/>
<path d="M2479 2566 c-3 -4 -3 -26 1 -49 5 -23 6 -45 4 -48 -5 -9 22 -19 30
-12 10 10 7 25 -3 18 -9 -5 -15 19 -24 83 -1 8 -5 11 -8 8z"/>
<path d="M2272 2555 c3 -3 31 -7 63 -8 43 -2 61 -8 71 -22 8 -10 14 -15 14 -9
0 5 -7 17 -14 27 -10 13 -28 17 -76 17 -35 0 -61 -2 -58 -5z"/>
<path d="M2246 2499 c-18 -45 -16 -51 14 -56 21 -3 27 11 10 22 -6 4 -4 12 5
21 8 9 12 21 8 27 -4 7 6 4 21 -7 25 -16 32 -16 55 -5 26 13 26 13 -19 19 -25
4 -52 10 -61 14 -13 5 -20 -3 -33 -35z"/>
<path d="M1717 2493 c-4 -3 -7 -25 -7 -48 0 -46 -17 -68 -47 -63 -10 1 -19 -2
-20 -7 -1 -6 24 -9 64 -7 52 2 68 -1 78 -14 9 -14 21 -15 59 -10 l47 7 -7 46
c-6 44 -6 46 15 40 11 -3 21 -1 21 4 0 5 -13 9 -30 9 -17 0 -39 9 -50 20 -20
20 -20 20 -20 -10 0 -19 7 -33 20 -40 28 -15 27 -60 0 -60 -13 0 -24 10 -30
24 -7 19 -17 25 -47 28 -38 3 -38 3 -37 46 1 45 1 45 -9 35z"/>
<path d="M1943 2467 c-15 -33 -5 -43 42 -43 30 1 41 5 43 19 2 12 -3 17 -19
17 -12 0 -30 7 -39 15 -15 14 -18 13 -27 -8z"/>
<path d="M2168 2477 l-27 -10 32 -46 c17 -25 29 -48 27 -51 -3 -3 12 -6 32 -7
27 -2 45 4 64 20 l26 22 -41 11 c-33 9 -41 9 -41 -2 0 -8 9 -14 21 -14 11 0
17 -4 14 -10 -9 -14 -58 -13 -73 2 -7 7 -12 20 -12 29 0 10 -6 19 -12 22 -9 3
-7 9 7 20 26 20 18 26 -17 14z"/>
<path d="M2405 2447 c9 -44 -10 -79 -55 -102 -17 -9 -30 -13 -30 -10 0 3 -11
-2 -25 -11 -38 -25 -24 -27 27 -5 43 18 44 18 43 0 -1 -10 -4 -22 -8 -25 -12
-12 -8 -24 9 -24 12 0 6 -11 -20 -40 -25 -28 -36 -50 -36 -71 0 -18 4 -28 10
-24 6 4 8 16 5 28 -5 19 -5 20 5 5 8 -13 7 -24 -6 -43 -10 -16 -14 -34 -10
-50 5 -18 1 -34 -14 -52 -11 -14 -20 -35 -20 -47 1 -16 4 -13 15 12 8 18 19
31 25 27 6 -4 10 10 11 37 0 33 2 38 9 23 4 -11 6 -31 3 -45 -3 -14 -2 -22 2
-18 10 9 13 158 3 152 -14 -9 -9 4 16 41 31 46 38 27 17 -50 -16 -60 -13 -150
3 -112 5 9 6 26 3 37 -3 11 -1 20 4 20 5 0 9 21 9 46 0 25 4 43 9 40 17 -11
20 24 6 58 -25 59 -20 101 15 128 26 21 30 28 22 49 -6 13 -20 33 -32 44 l-22
20 7 -38z"/>
<path d="M1579 2457 c-9 -7 -19 -22 -23 -35 -6 -19 -4 -22 21 -22 26 0 29 3
29 35 0 38 -3 41 -27 22z"/>
<path d="M1985 2343 c-8 -34 -54 -85 -69 -76 -6 3 -5 0 2 -8 10 -11 17 -7 41
21 28 33 47 77 38 87 -3 2 -8 -9 -12 -24z"/>
<path d="M2528 2363 c-10 -2 -18 -13 -18 -24 0 -19 1 -19 16 -4 12 12 20 13
29 5 11 -9 12 -7 8 9 -3 12 -8 20 -12 20 -3 -1 -14 -3 -23 -6z"/>
<path d="M2481 2322 c-1 -24 39 -126 46 -118 3 2 -3 18 -11 35 -9 17 -20 47
-25 68 -6 25 -9 30 -10 15z"/>
<path d="M2591 2323 c10 -11 10 -14 2 -9 -17 10 -16 -4 2 -28 8 -11 15 -30 15
-42 0 -13 4 -26 10 -29 6 -4 8 12 6 42 -4 59 -14 83 -33 83 -13 0 -13 -2 -2
-17z"/>
<path d="M2525 2310 c-3 -6 3 -22 14 -36 12 -15 21 -38 21 -51 0 -14 4 -21 10
-18 20 13 11 64 -15 81 -14 9 -22 20 -19 25 3 5 3 9 0 9 -3 0 -8 -5 -11 -10z"/>
<path d="M2155 2291 c21 -25 22 -66 1 -91 -7 -8 -11 -29 -9 -47 2 -17 -1 -34
-8 -38 -8 -5 -9 -1 -4 15 4 13 3 20 -2 17 -5 -3 -10 9 -11 28 -2 18 2 36 8 40
5 3 10 21 9 38 l-1 32 -8 -29 c-5 -16 -21 -41 -35 -56 l-27 -28 38 -53 c53
-76 51 -75 74 -54 23 21 28 78 6 69 -8 -3 -11 -15 -8 -30 2 -14 0 -24 -7 -24
-7 0 -10 17 -9 44 2 24 5 42 8 40 7 -8 30 80 25 96 -3 8 -18 24 -33 34 l-27
20 20 -23z"/>
<path d="M1850 2270 c-25 -10 -55 -19 -67 -19 -30 -1 -34 -12 -22 -55 7 -27 7
-41 -1 -51 -20 -24 -24 -155 -7 -195 16 -37 17 -34 19 43 1 25 4 33 11 25 6
-9 7 -5 4 11 -4 16 2 31 19 48 25 25 33 42 12 26 -21 -16 -48 -23 -48 -13 0 6
7 10 15 10 18 0 40 42 49 94 5 24 19 49 39 67 37 34 36 34 -23 9z m-30 -65 c0
-13 -29 -29 -37 -21 -3 2 0 14 7 25 11 22 30 20 30 -4z"/>
<path d="M1607 2274 c-4 -4 -7 -20 -7 -34 0 -15 -7 -43 -15 -62 -8 -20 -10
-39 -5 -44 4 -5 10 -17 12 -27 3 -16 7 -15 36 11 23 21 32 37 32 61 0 18 5 42
11 53 6 11 7 24 2 28 -12 13 -58 22 -66 14z m24 -101 c-13 -29 -31 -22 -24 10
11 50 14 53 25 33 7 -13 7 -25 -1 -43z"/>
<path d="M2470 2249 c0 -15 12 -37 29 -53 l29 -28 -24 48 c-30 59 -34 63 -34
33z"/>
<path d="M2461 2150 c16 -28 25 -37 27 -26 6 29 21 17 27 -21 4 -21 11 -49 16
-63 9 -24 7 9 -6 89 -3 22 -22 41 -42 42 -5 1 -16 5 -27 11 -16 9 -16 5 5 -32z"/>
<path d="M2085 2090 c-3 -5 -1 -19 5 -30 6 -11 10 -40 8 -63 -2 -33 2 -46 18
-59 12 -10 24 -35 28 -57 9 -61 30 -66 22 -5 -3 27 -9 72 -12 101 -4 32 -14
59 -25 69 -11 10 -19 23 -19 30 0 17 -17 27 -25 14z"/>
<path d="M2312 1981 c-1 -14 -7 -27 -12 -29 -14 -5 -13 -32 1 -32 30 0 53 73
26 83 -8 3 -14 -5 -15 -22z"/>
<path d="M2050 1971 c0 -10 7 -24 15 -31 8 -7 15 -19 15 -27 0 -7 7 -16 15
-19 8 -4 15 -11 15 -16 0 -6 -7 -8 -15 -4 -10 4 -15 -1 -15 -15 0 -15 5 -19
16 -15 9 3 20 6 25 6 17 0 9 31 -15 63 -13 18 -27 42 -31 55 -8 27 -25 29 -25
3z"/>
<path d="M1874 1950 c6 -41 9 -43 73 -64 59 -18 103 -21 103 -6 0 17 -31 24
-40 10 -9 -14 -13 -11 -108 66 l-34 27 6 -33z"/>
<path d="M2036 1822 c-2 -4 0 -14 5 -22 8 -13 11 -13 22 1 6 9 19 18 27 22 8
3 1 6 -17 6 -17 1 -34 -3 -37 -7z"/>
<path d="M20 2346 c0 -231 3 -416 8 -412 4 4 7 188 7 409 l0 402 398 2 c220 1
401 4 404 6 14 15 -97 19 -438 15 l-379 -3 0 -419z"/>
<path d="M915 2760 c-40 -4 46 -7 199 -8 148 -1 266 1 262 5 -9 9 -365 11
-461 3z"/>
<path d="M2815 2760 l-40 -6 40 -5 40 -4 1 -930 c1 -597 -2 -934 -9 -942 -6
-9 -6 -13 2 -13 16 0 13 -497 -3 -508 -18 -12 -1186 -13 -1186 -1 0 6 -6 7
-12 2 -21 -12 -158 -14 -181 -1 -16 8 -22 8 -25 -1 -6 -18 -1387 -14 -1402 4
-7 8 -9 80 -7 214 1 110 -1 201 -5 201 -4 0 -8 -99 -8 -220 l0 -220 1425 0
1425 0 0 1220 c0 671 -3 1219 -7 1219 -5 -1 -26 -5 -48 -9z"/>
<path d="M249 2464 c-16 -20 -14 -441 3 -461 8 -10 71 -13 268 -13 217 0 260
2 270 15 19 22 19 437 1 459 -12 14 -48 16 -271 16 -223 0 -259 -2 -271 -16z
m529 -6 c17 -17 17 -429 0 -446 -17 -17 -499 -17 -516 0 -17 17 -17 429 0 446
17 17 499 17 516 0z"/>
<path d="M380 2300 c0 -25 2 -25 65 -26 66 -1 75 5 55 36 -8 13 -11 11 -16 -7
-6 -23 -34 -33 -34 -12 0 5 6 7 13 3 9 -5 9 -3 -1 7 -11 12 -14 12 -21 0 -7
-11 -10 -11 -15 0 -5 11 -7 12 -12 1 -5 -10 -9 -9 -20 5 -12 17 -13 16 -14 -7z"/>
<path d="M547 2303 c-13 -12 -7 -33 8 -33 8 0 15 9 15 20 0 20 -11 26 -23 13z"/>
<path d="M587 2303 c-13 -12 -7 -33 8 -33 8 0 15 9 15 20 0 20 -11 26 -23 13z"/>
<path d="M340 2172 c0 -32 21 -47 39 -29 6 6 11 22 11 36 0 13 -3 21 -7 17 -4
-4 -8 -13 -8 -19 0 -7 -4 -13 -10 -14 -5 -1 -9 4 -7 12 1 7 -2 16 -8 20 -6 4
-10 -6 -10 -23z"/>
<path d="M426 2188 c-11 -25 0 -48 24 -48 14 0 20 6 19 23 -1 16 -2 18 -6 5
-7 -27 -21 -21 -25 10 -4 22 -6 24 -12 10z"/>
<path d="M620 2171 c0 -17 5 -31 10 -31 6 0 10 11 10 24 0 14 -4 28 -10 31 -6
4 -10 -7 -10 -24z"/>
<path d="M481 2158 c1 -17 2 -19 6 -5 2 9 8 17 13 17 5 0 11 -8 13 -17 4 -17
5 -17 6 0 1 21 21 23 21 2 0 -8 4 -15 9 -15 5 0 7 9 4 20 -4 15 -14 20 -39 20
-29 0 -34 -3 -33 -22z"/>
<path d="M565 2170 c-9 -15 14 -40 31 -33 22 8 18 43 -5 43 -11 0 -23 -5 -26
-10z"/>
<path d="M655 2170 c-9 -14 14 -42 27 -34 6 4 5 10 -3 15 -11 7 -10 9 4 9 10
0 15 5 12 10 -8 13 -32 13 -40 0z"/>
<path d="M877 2294 c-4 -4 -7 -27 -7 -51 l0 -43 66 0 65 0 -3 48 -3 47 -55 3
c-31 2 -59 0 -63 -4z m103 -50 l0 -35 -47 3 c-46 3 -48 4 -50 36 l-3 32 50 0
50 0 0 -36z"/>
<path d="M1028 2282 c-3 -10 -3 -32 0 -50 4 -28 8 -32 33 -32 28 0 29 2 29 50
0 48 -1 50 -29 50 -19 0 -30 -6 -33 -18z m48 -29 c-1 -27 -6 -39 -18 -41 -15
-3 -18 4 -18 37 0 33 4 41 19 41 15 0 18 -7 17 -37z"/>
<path d="M871 2123 c0 -16 3 -22 6 -15 2 6 11 12 18 12 7 0 16 -6 18 -12 3 -7
6 -3 6 8 1 20 -16 34 -40 34 -5 0 -9 -12 -8 -27z"/>
<path d="M971 2123 c-1 -21 3 -23 41 -21 24 1 37 3 30 6 -10 3 -10 7 -2 17 9
11 6 13 -15 11 -15 -2 -31 -9 -35 -16 -6 -10 -9 -8 -13 6 -4 16 -5 16 -6 -3z"/>
<path d="M1061 2123 c-1 -16 5 -23 17 -23 24 0 32 8 25 26 -7 20 -23 17 -24
-3 0 -15 -2 -15 -9 2 -8 19 -9 19 -9 -2z"/>
<path d="M888 2063 c-10 -2 -18 -13 -18 -23 0 -15 7 -19 30 -17 24 2 30 7 30
25 0 22 -7 24 -42 15z"/>
<path d="M960 2055 c-16 -20 -7 -29 30 -31 25 -1 27 0 15 13 -8 8 -15 19 -15
24 0 14 -16 11 -30 -6z"/>
<path d="M1057 2063 c-8 -14 7 -38 28 -42 20 -3 20 -3 0 20 -11 13 -21 25 -21
27 -1 2 -4 0 -7 -5z"/>
<path d="M1110 2038 c0 -10 4 -18 10 -18 5 0 7 7 4 15 -5 11 -2 13 10 9 9 -3
13 -10 10 -15 -3 -5 7 -9 23 -9 24 1 26 2 10 11 -9 6 -15 14 -12 19 3 5 -8 8
-25 8 -22 -1 -30 -6 -30 -20z"/>
<path d="M20 1436 c0 -268 4 -485 8 -482 9 5 8 953 -1 963 -4 3 -7 -213 -7
-481z"/>
<path d="M420 1668 c0 -28 4 -33 25 -34 19 -2 23 1 16 10 -7 9 -7 16 1 24 16
16 -4 15 -21 0 -11 -11 -12 -9 -6 10 4 13 2 22 -4 22 -6 0 -11 -15 -11 -32z"/>
<path d="M648 1688 c-3 -7 -2 -23 1 -36 5 -20 7 -19 17 13 9 27 8 35 -1 35 -7
0 -15 -6 -17 -12z"/>
<path d="M900 1690 c0 -5 -9 -10 -20 -10 -15 0 -20 -7 -20 -25 0 -20 5 -25 25
-25 22 0 25 4 25 35 0 19 -2 35 -5 35 -3 0 -5 -4 -5 -10z"/>
<path d="M960 1691 c0 -5 -9 -11 -20 -14 -31 -8 -27 -47 5 -47 22 0 25 4 25
35 0 19 -2 35 -5 35 -3 0 -5 -4 -5 -9z"/>
<path d="M1240 1665 c0 -19 4 -35 8 -35 4 0 8 16 8 35 0 19 -4 35 -8 35 -4 0
-8 -16 -8 -35z"/>
<path d="M1417 1693 c-7 -11 3 -63 12 -63 8 0 6 58 -2 66 -3 3 -7 2 -10 -3z"/>
<path d="M1643 1693 c13 -3 16 -10 11 -26 -6 -19 -5 -20 10 -8 25 21 20 41
-11 40 -18 -1 -22 -3 -10 -6z"/>
<path d="M816 1681 c-3 -5 0 -12 6 -14 8 -3 6 -6 -4 -6 -29 -1 -22 -31 7 -31
18 0 25 5 25 19 0 22 -25 46 -34 32z"/>
<path d="M300 1655 c0 -22 4 -26 23 -23 14 2 22 10 22 23 0 13 -8 21 -22 23
-19 3 -23 -1 -23 -23z"/>
<path d="M364 1665 c-4 -9 -2 -21 4 -27 15 -15 44 -1 40 19 -4 23 -36 29 -44
8z"/>
<path d="M500 1655 c0 -14 4 -25 9 -25 5 0 8 7 7 16 -2 26 22 28 27 2 4 -20 4
-20 6 5 1 23 -3 27 -24 27 -20 0 -25 -5 -25 -25z"/>
<path d="M560 1659 c0 -13 8 -23 23 -27 22 -6 22 -6 -3 -13 l-25 -8 25 2 c20
2 26 8 28 35 3 29 1 32 -22 32 -20 0 -26 -5 -26 -21z"/>
<path d="M680 1655 c0 -22 4 -26 23 -23 14 2 22 10 22 23 0 13 -8 21 -22 23
-19 3 -23 -1 -23 -23z"/>
<path d="M1064 1665 c-8 -19 3 -35 26 -35 19 0 30 17 23 38 -6 17 -42 15 -49
-3z"/>
<path d="M1124 1655 c-1 -14 2 -25 7 -25 5 0 9 9 9 20 0 27 18 25 23 -2 4 -20
4 -19 6 5 1 22 -3 27 -21 27 -17 0 -23 -6 -24 -25z"/>
<path d="M1205 1671 c19 -9 19 -10 -2 -10 -33 -1 -30 -31 3 -31 21 0 25 4 22
22 -2 14 -11 24 -23 25 -20 3 -20 3 0 -6z"/>
<path d="M1294 1665 c-8 -20 4 -35 27 -35 14 0 19 7 19 25 0 18 -5 25 -20 25
-11 0 -23 -7 -26 -15z"/>
<path d="M1350 1645 c0 -19 5 -35 10 -35 6 0 10 5 10 10 0 6 6 10 14 10 8 0
16 6 18 13 9 22 -3 37 -28 37 -21 0 -24 -5 -24 -35z"/>
<path d="M1474 1665 c-4 -9 -2 -21 4 -27 15 -15 44 -1 40 19 -4 23 -36 29 -44
8z"/>
<path d="M1530 1655 c0 -14 5 -25 10 -25 6 0 10 9 10 20 0 27 18 25 23 -2 4
-20 4 -19 6 5 1 23 -3 27 -24 27 -20 0 -25 -5 -25 -25z"/>
<path d="M1590 1670 c0 -6 8 -14 17 -17 15 -6 15 -7 -3 -14 -17 -7 -17 -8 4
-8 13 -1 22 5 22 14 0 8 -8 15 -17 16 -15 0 -15 2 2 9 19 8 19 9 -2 9 -13 1
-23 -4 -23 -9z"/>
<path d="M240 1571 c0 -19 23 -71 31 -71 12 0 11 10 -2 49 -10 28 -29 43 -29
22z"/>
<path d="M323 1562 c-3 -12 -9 -22 -14 -22 -5 0 -9 -9 -9 -20 0 -11 4 -20 9
-20 12 0 35 69 27 78 -4 3 -9 -4 -13 -16z"/>
<path d="M400 1561 c0 -12 4 -19 10 -16 5 3 15 -5 22 -19 14 -32 22 -33 36 -1
6 14 8 25 3 25 -5 0 -11 -5 -13 -11 -2 -6 -16 2 -31 17 -26 26 -27 26 -27 5z"/>
<path d="M1321 1563 c-5 -10 -13 -17 -18 -15 -4 1 -8 -8 -8 -20 0 -16 7 -24
23 -26 20 -3 22 1 22 37 0 45 -4 50 -19 24z"/>
<path d="M693 1549 c4 -13 7 -30 7 -36 0 -7 4 -13 9 -13 14 0 7 63 -8 68 -10
3 -12 -2 -8 -19z"/>
<path d="M350 1545 c-16 -20 -5 -45 20 -45 14 0 20 7 20 24 0 28 -24 41 -40
21z"/>
<path d="M490 1545 c-16 -20 -5 -45 20 -45 14 0 20 7 20 24 0 28 -24 41 -40
21z"/>
<path d="M570 1540 c-6 -12 -7 -21 0 -25 5 -3 6 -13 3 -21 -4 -12 0 -15 18
-12 33 4 41 63 9 71 -13 3 -24 -1 -30 -13z"/>
<path d="M641 1550 c-19 -11 -9 -45 14 -45 13 0 21 8 23 21 3 23 -17 37 -37
24z"/>
<path d="M756 1543 c4 -10 7 -28 7 -40 -1 -33 15 -28 31 10 15 37 13 45 -9 27
-12 -10 -15 -10 -15 4 0 9 -5 16 -11 16 -7 0 -8 -7 -3 -17z"/>
<path d="M820 1545 c-24 -29 10 -61 37 -34 8 8 13 8 17 0 4 -6 18 -11 32 -11
19 0 24 5 24 24 0 14 -4 28 -10 31 -5 3 -10 -3 -10 -14 0 -12 -4 -21 -10 -21
-5 0 -10 10 -10 23 -1 21 -1 22 -15 3 -8 -11 -15 -15 -15 -9 0 18 -28 23 -40
8z"/>
<path d="M970 1545 c-7 -8 -10 -22 -6 -30 6 -17 32 -20 41 -5 5 8 11 7 21 -1
17 -14 44 -5 44 14 0 24 -28 41 -44 28 -10 -8 -16 -9 -21 -1 -9 14 -20 13 -35
-5z"/>
<path d="M1140 1545 c-15 -18 -6 -45 15 -45 9 0 13 5 10 10 -3 6 -1 10 4 10
16 0 13 27 -3 33 -8 3 -20 -1 -26 -8z"/>
<path d="M1243 1553 c-18 -7 -16 -43 3 -50 16 -6 34 11 34 33 0 14 -20 23 -37
17z"/>
<path d="M1082 1525 c6 -14 14 -25 18 -25 4 0 12 11 18 25 7 15 8 25 2 25 -6
0 -10 -5 -10 -12 0 -9 -3 -9 -12 0 -20 20 -28 13 -16 -13z"/>
<path d="M1190 1525 c0 -14 4 -25 9 -25 5 0 11 11 13 25 4 17 1 25 -8 25 -8 0
-14 -11 -14 -25z"/>
<path d="M1464 1382 c-16 -25 8 -48 27 -26 10 12 10 18 -2 29 -13 13 -16 12
-25 -3z"/>
<path d="M1546 1392 c-8 -13 0 -47 10 -45 11 3 14 42 3 48 -4 3 -10 2 -13 -3z"/>
<path d="M256 1381 c-7 -11 3 -41 14 -41 11 0 21 30 14 41 -3 5 -9 9 -14 9 -5
0 -11 -4 -14 -9z"/>
<path d="M336 1374 c-9 -24 -9 -24 34 -21 22 1 40 7 40 12 0 7 3 7 8 0 11 -15
42 -18 42 -4 0 7 7 4 16 -7 10 -13 17 -15 20 -7 4 8 21 10 55 6 38 -4 49 -3
49 8 0 11 2 11 10 -1 8 -12 11 -13 19 -1 7 11 9 11 14 0 4 -10 6 -8 6 4 1 16
-7 17 -74 13 -41 -2 -75 0 -75 5 0 4 -6 6 -14 3 -24 -9 -126 -11 -126 -2 0 14
-18 9 -24 -8z"/>
<path d="M660 1371 c0 -23 15 -28 23 -8 4 9 6 9 6 -1 1 -7 6 -10 11 -7 6 3 10
-1 10 -10 0 -24 24 -13 28 13 3 17 -2 21 -26 20 -16 -1 -34 2 -41 6 -7 5 -11
-1 -11 -13z"/>
<path d="M850 1374 c0 -15 8 -19 35 -21 23 -1 35 3 35 12 0 16 -27 28 -36 14
-4 -6 -11 -6 -20 2 -11 9 -14 8 -14 -7z"/>
<path d="M1600 1373 c0 -13 8 -19 25 -21 19 -1 25 3 25 18 0 11 -4 20 -10 20
-5 0 -10 -5 -10 -11 0 -8 -5 -8 -15 1 -12 10 -15 9 -15 -7z"/>
<path d="M1673 1358 c-1 -25 1 -28 6 -14 5 14 10 16 15 8 11 -18 26 -4 25 21
-1 21 -2 20 -9 -3 l-8 -25 -7 23 c-11 32 -22 27 -22 -10z"/>
<path d="M1734 1368 c1 -13 6 -22 9 -20 4 1 18 2 32 2 18 0 25 5 25 20 0 16
-7 20 -35 20 -31 0 -34 -3 -31 -22z"/>
<path d="M1841 1374 c-1 -18 6 -23 33 -26 20 -2 32 0 29 6 -4 5 3 7 15 4 12
-3 23 -1 26 6 3 7 5 7 5 -1 2 -22 21 -14 21 8 0 11 -4 18 -9 14 -17 -10 -71
-13 -71 -3 0 5 -9 4 -19 -2 -14 -7 -21 -6 -24 3 -3 6 -6 2 -6 -9z"/>
<path d="M1980 1367 c0 -18 2 -19 10 -7 7 11 10 11 10 2 0 -8 5 -10 12 -6 8 5
9 2 5 -9 -3 -10 -2 -17 3 -17 6 0 10 4 10 9 0 5 3 17 6 26 4 9 3 15 -2 14 -5
-1 -11 0 -14 1 -27 10 -40 6 -40 -13z"/>
<path d="M2060 1367 c0 -18 2 -19 10 -7 9 13 10 13 10 0 0 -13 1 -13 10 0 6 9
10 10 10 3 0 -15 60 -13 60 2 0 6 5 3 10 -5 8 -12 10 -11 10 8 0 13 -6 22 -15
22 -8 0 -15 -4 -15 -9 0 -8 -22 -7 -67 3 -19 4 -23 0 -23 -17z"/>
<path d="M760 1367 c0 -7 9 -13 20 -14 11 -1 20 4 20 10 0 7 4 6 10 -3 8 -13
10 -12 10 3 0 12 -8 17 -30 17 -18 0 -30 -5 -30 -13z"/>
<path d="M950 1364 c0 -8 5 -12 10 -9 6 3 10 1 10 -5 0 -6 5 -8 10 -5 18 11
11 35 -10 35 -11 0 -20 -7 -20 -16z"/>
<path d="M2202 1362 c4 -19 40 -24 74 -12 13 5 26 4 34 -3 10 -9 11 -9 5 2 -6
10 -2 12 14 6 15 -4 21 -2 21 8 0 15 -77 21 -86 5 -3 -4 -11 -8 -17 -8 -8 0
-8 3 1 9 9 5 3 8 -18 9 -24 0 -30 -3 -28 -16z"/>
<path d="M2360 1363 c0 -17 37 -17 43 0 4 7 6 6 6 -5 1 -9 -5 -19 -11 -21 -10
-4 -10 -6 0 -6 7 -1 15 6 18 14 5 13 9 13 22 3 12 -10 14 -10 8 0 -4 6 -2 12
3 12 6 0 11 4 11 9 0 5 -22 9 -50 8 -35 0 -50 -4 -50 -14z"/>
<path d="M2550 1365 c0 -8 9 -15 19 -15 10 0 21 7 25 15 4 11 -1 15 -19 15
-16 0 -25 -6 -25 -15z"/>
<path d="M1547 1293 c-9 -14 -1 -47 12 -51 8 -3 11 5 9 22 -4 29 -13 41 -21
29z"/>
<path d="M256 1281 c-7 -11 3 -41 14 -41 11 0 21 30 14 41 -3 5 -9 9 -14 9 -5
0 -11 -4 -14 -9z"/>
<path d="M331 1263 c0 -16 3 -22 6 -16 3 8 14 11 27 7 27 -6 44 21 20 30 -9 3
-12 1 -9 -4 3 -6 -4 -10 -17 -10 -18 0 -20 2 -8 10 13 8 12 10 -2 10 -13 0
-18 -8 -17 -27z"/>
<path d="M520 1280 c0 -5 -8 -6 -17 -3 -13 5 -15 2 -10 -11 5 -12 3 -15 -6
-10 -8 5 -9 4 -2 -4 15 -17 55 -3 55 19 0 11 -4 19 -10 19 -5 0 -10 -4 -10
-10z"/>
<path d="M1463 1279 c-9 -9 -8 -15 4 -27 13 -13 16 -13 24 -1 17 27 -6 50 -28
28z"/>
<path d="M1644 1276 c-5 -6 -14 -17 -19 -25 -6 -11 -4 -13 11 -7 10 5 24 9 29
9 15 1 16 34 1 34 -6 0 -16 -5 -22 -11z"/>
<path d="M1704 1276 c-3 -8 -1 -23 5 -33 6 -11 11 -13 11 -5 0 7 5 10 12 6 6
-4 17 1 24 10 7 10 18 15 24 11 9 -6 9 -9 0 -15 -7 -4 2 -7 21 -6 27 1 35 6
37 25 3 21 0 22 -40 20 -33 -3 -45 -8 -50 -24 -6 -19 -6 -19 -13 3 -8 25 -23
29 -31 8z"/>
<path d="M404 1268 c-7 -10 4 -28 17 -28 6 0 7 5 4 10 -8 12 5 13 25 0 13 -8
29 3 30 20 0 9 -71 7 -76 -2z"/>
<path d="M1881 1258 c0 -22 1 -22 9 -3 7 17 9 17 9 3 1 -10 6 -18 12 -18 5 0
7 4 4 10 -3 6 1 7 9 4 10 -4 16 -1 16 7 0 11 3 11 10 -1 8 -13 10 -12 10 3 0
13 -9 17 -40 17 -35 0 -40 -3 -39 -22z"/>
<path d="M1973 1261 c1 -16 7 -19 31 -16 16 2 33 10 37 17 7 10 9 10 9 -2 0
-13 1 -13 10 0 5 8 10 10 10 4 0 -7 13 -10 30 -9 17 1 33 -1 35 -6 7 -11 32
-1 38 15 4 9 -14 13 -69 13 -59 1 -76 -2 -85 -15 -10 -16 -10 -15 -5 1 6 19
-10 24 -17 5 -4 -10 -6 -10 -6 0 -1 6 -5 12 -10 12 -6 0 -9 -9 -8 -19z"/>
<path d="M2184 1269 c-3 -6 -1 -16 5 -22 9 -9 14 -8 21 3 9 15 4 30 -10 30 -5
0 -12 -5 -16 -11z"/>
<path d="M2234 1269 c-6 -11 4 -29 16 -29 5 0 7 8 4 18 -5 15 -4 15 10 -2 13
-16 18 -17 31 -6 8 7 15 9 15 4 0 -5 11 -10 25 -10 15 -1 22 2 18 9 -4 6 0 8
10 4 10 -4 17 -1 17 6 0 15 -137 20 -146 6z"/>
<path d="M2394 1269 c-3 -6 -2 -15 2 -19 12 -12 38 5 30 19 -9 14 -23 14 -32
0z"/>
<path d="M2434 1254 c-1 -13 2 -24 7 -24 5 0 9 5 9 11 0 6 7 8 16 5 8 -3 12
-2 9 4 -3 6 -1 10 4 10 6 0 11 4 11 9 0 5 -12 9 -27 9 -22 -1 -28 -6 -29 -24z"/>
<path d="M254 1177 c-8 -9 -7 -16 4 -26 11 -11 16 -11 22 -1 8 14 3 40 -9 40
-3 -1 -11 -6 -17 -13z"/>
<path d="M330 1165 c0 -25 1 -26 18 -9 16 16 17 16 20 1 4 -20 13 -21 31 -4
11 10 13 10 7 0 -8 -14 10 -18 18 -5 7 12 -7 29 -24 29 -8 0 -27 4 -42 8 -25
6 -28 5 -28 -20z"/>
<path d="M577 1182 c-5 -7 -13 -10 -18 -6 -5 3 -17 0 -26 -8 -13 -10 -15 -10
-9 0 7 12 -15 11 -61 -4 -7 -2 -13 1 -13 6 0 6 -4 10 -9 10 -6 0 -9 -8 -8 -18
1 -14 10 -17 56 -16 32 1 57 6 59 13 3 8 9 6 17 -6 16 -22 28 -13 23 19 -2 16
-5 19 -11 10z"/>
<path d="M1464 1177 c-8 -9 -7 -16 4 -26 11 -11 16 -11 22 -1 8 14 3 40 -9 40
-3 -1 -11 -6 -17 -13z"/>
<path d="M1540 1163 c0 -22 2 -25 10 -13 7 12 12 12 22 2 16 -16 28 -15 28 3
0 8 -3 14 -7 14 -5 -1 -17 -1 -28 0 -17 1 -18 3 -5 11 13 8 12 10 -2 10 -13 0
-18 -8 -18 -27z"/>
<path d="M1610 1170 c0 -20 24 -28 35 -10 3 5 13 6 21 3 11 -4 12 -8 4 -13 -6
-4 3 -7 19 -7 17 0 28 4 25 9 -3 4 -1 8 5 8 5 0 12 -6 14 -12 3 -7 6 -4 6 6 1
20 1 20 16 0 15 -20 21 -9 7 14 -6 8 -23 11 -53 7 -31 -4 -40 -2 -29 5 13 9
13 10 0 10 -9 0 -22 -6 -29 -12 -11 -10 -14 -10 -18 0 -7 19 -23 14 -23 -8z"/>
<path d="M1775 1179 c-4 -6 -3 -15 3 -21 14 -14 72 -20 72 -8 0 6 0 13 0 18 0
4 -13 8 -28 8 -15 1 -21 0 -14 -3 6 -2 12 -10 12 -16 -1 -7 -9 -2 -20 11 -12
15 -21 19 -25 11z"/>
<path d="M1880 1171 c0 -26 15 -35 37 -22 11 6 24 6 35 0 22 -12 33 5 19 28
-6 10 -11 12 -11 6 0 -9 -7 -10 -26 -3 -38 15 -54 12 -54 -9z"/>
<path d="M2080 1181 c0 -5 -2 -15 -5 -23 -4 -9 5 -13 28 -14 25 0 33 4 33 18
0 10 -4 18 -8 18 -4 0 -8 -4 -8 -8 0 -5 -6 -9 -14 -9 -8 0 -12 6 -9 14 3 7 0
13 -6 13 -6 0 -11 -4 -11 -9z"/>
<path d="M2322 1168 c2 -12 9 -23 16 -24 7 -1 8 0 2 3 -16 7 -12 33 5 33 8 0
15 -7 15 -15 0 -8 2 -15 4 -15 2 0 12 -3 22 -7 12 -4 15 -3 10 5 -10 16 7 15
23 0 10 -11 15 -10 24 3 10 14 14 14 25 3 18 -20 31 -17 25 5 -4 15 -14 18
-64 16 -32 0 -59 2 -59 7 0 4 -12 8 -26 8 -20 0 -25 -4 -22 -22z"/>
<path d="M617 1173 c-4 -3 -7 -10 -7 -15 0 -11 23 -6 32 7 5 6 8 3 8 -7 0 -12
7 -15 27 -13 15 1 29 8 31 14 2 7 9 6 19 -4 18 -19 28 -19 47 1 9 8 16 12 16
7 0 -5 -5 -14 -12 -21 -9 -9 -9 -12 -1 -12 7 0 14 4 18 10 3 5 13 6 22 3 11
-4 14 -3 9 5 -4 7 -3 12 3 12 5 0 11 -6 13 -12 3 -7 7 -3 10 8 5 19 1 21 -54
21 -50 0 -58 -2 -53 -16 4 -13 3 -13 -8 1 -15 18 -57 21 -69 3 -5 -6 -8 -6 -8
3 0 13 -32 17 -43 5z"/>
<path d="M1991 1162 c0 -10 3 -12 6 -5 3 10 8 9 20 -2 17 -17 33 -20 33 -5 0
6 0 13 0 17 0 5 -13 9 -30 10 -23 2 -30 -1 -29 -15z"/>
<path d="M2181 1165 c5 -21 59 -31 59 -11 0 7 -6 13 -12 13 -7 0 -21 4 -32 8
-14 6 -17 4 -15 -10z"/>
<path d="M2251 1158 c0 -22 1 -22 9 -3 5 11 9 15 9 9 1 -7 8 -14 16 -18 10 -4
15 1 15 14 0 15 -7 20 -25 20 -19 0 -25 -5 -24 -22z"/>
<path d="M2500 1168 c0 -28 15 -39 35 -25 10 8 15 19 11 25 -10 16 -46 15 -46
0z"/>
<path d="M2570 1169 c0 -16 22 -21 31 -8 7 11 9 10 9 -3 0 -10 5 -18 11 -18 5
0 8 4 4 9 -3 5 -1 12 5 16 5 3 10 2 10 -2 0 -5 9 -9 20 -10 11 -1 20 4 20 10
0 8 -19 13 -55 13 -30 0 -55 -3 -55 -7z"/>
<path d="M254 1077 c-8 -9 -7 -16 4 -26 11 -11 16 -11 22 -1 8 14 3 40 -9 40
-3 -1 -11 -6 -17 -13z"/>
<path d="M330 1063 c0 -20 3 -24 9 -14 6 9 15 11 27 6 31 -13 56 -16 49 -5 -3
5 -1 10 5 10 6 0 8 5 5 11 -4 6 -13 8 -20 5 -8 -3 -16 0 -19 7 -3 9 -5 9 -5 0
-1 -7 -11 -13 -23 -13 -19 0 -20 2 -8 10 13 8 12 10 -2 10 -13 0 -18 -8 -18
-27z"/>
<path d="M463 1083 c-7 -3 -13 -9 -13 -14 0 -6 6 -7 13 -3 8 5 8 2 -2 -9 -8
-10 -9 -17 -3 -17 6 0 14 5 17 10 4 7 13 7 26 0 15 -9 19 -7 19 7 1 16 2 16
10 2 10 -17 66 -24 75 -9 11 17 -6 40 -23 31 -17 -9 -83 -8 -99 1 -4 3 -14 3
-20 1z"/>
<path d="M1464 1077 c-8 -9 -7 -16 4 -26 11 -11 16 -11 22 -1 8 14 3 40 -9 40
-3 -1 -11 -6 -17 -13z"/>
<path d="M1540 1063 c0 -22 2 -25 10 -13 7 12 12 12 22 2 16 -16 28 -15 28 3
0 8 -3 14 -7 14 -5 -1 -17 -1 -28 0 -17 1 -18 3 -5 11 13 8 12 10 -2 10 -13 0
-18 -8 -18 -27z"/>
<path d="M1610 1065 c0 -27 7 -30 30 -15 10 6 11 10 3 10 -7 0 -13 7 -13 15 0
8 -4 15 -10 15 -5 0 -10 -11 -10 -25z"/>
<path d="M1655 1080 c-3 -6 1 -13 10 -16 13 -5 14 -9 4 -15 -8 -5 -1 -7 19 -7
17 1 29 5 26 10 -3 4 -1 8 5 8 5 0 12 -6 14 -12 3 -7 6 -4 6 6 1 20 1 20 16 0
8 -10 15 -14 15 -8 0 22 -26 33 -65 28 -29 -3 -36 -1 -25 6 13 8 13 10 -2 10
-9 0 -20 -5 -23 -10z"/>
<path d="M1777 1083 c-13 -21 4 -39 38 -40 19 0 32 3 29 8 -3 5 0 9 6 9 6 0 8
4 5 10 -3 5 -19 8 -35 6 -16 -2 -31 2 -33 7 -2 8 -5 8 -10 0z"/>
<path d="M1880 1063 c0 -22 2 -25 10 -13 7 12 12 12 22 2 14 -14 32 -16 23 -2
-3 6 -2 10 4 10 5 0 12 -6 14 -12 3 -8 6 -5 6 5 1 10 6 15 11 12 6 -4 8 -10 5
-14 -7 -12 48 -11 63 2 9 7 16 7 24 -1 23 -23 48 -14 48 16 0 21 -2 24 -10 12
-5 -8 -10 -11 -10 -6 0 5 -7 3 -15 -4 -9 -8 -15 -8 -15 -2 0 12 -38 10 -58 -2
-7 -4 -12 -2 -12 4 0 7 -15 10 -40 7 -22 -2 -40 0 -40 5 0 4 -7 8 -15 8 -10 0
-15 -10 -15 -27z"/>
<path d="M2130 1066 c0 -21 4 -24 34 -23 19 0 32 5 29 10 -3 5 4 4 15 -2 31
-17 54 -14 50 6 -4 20 -78 29 -78 10 0 -7 -5 -4 -11 6 -15 25 -39 21 -39 -7z"/>
<path d="M2320 1070 c0 -19 6 -26 20 -27 11 -1 18 2 15 8 -4 5 -2 9 4 9 5 0
11 -6 14 -12 3 -10 9 -10 23 -2 14 8 27 8 50 -2 26 -11 34 -11 49 0 21 15 12
36 -16 36 -11 0 -19 -7 -20 -17 0 -15 -2 -15 -7 -3 -5 11 -22 15 -62 15 -30 0
-58 4 -62 10 -4 5 -8 -1 -8 -15z"/>
<path d="M614 1059 c0 -10 8 -16 22 -16 16 0 21 4 17 16 -4 13 -2 13 10 -2 13
-16 15 -16 21 -1 3 8 6 17 6 18 0 1 -17 2 -38 2 -28 0 -38 -4 -38 -17z"/>
<path d="M2530 1068 c0 -10 51 -30 58 -23 3 3 0 5 -6 5 -6 0 -9 7 -6 15 5 11
0 14 -20 13 -14 -1 -26 -6 -26 -10z"/>
<path d="M2598 1057 c4 -14 7 -16 13 -5 7 10 9 11 9 0 0 -7 5 -10 10 -7 19 12
10 31 -14 31 -18 0 -22 -4 -18 -19z"/>
<path d="M254 977 c-8 -9 -7 -16 4 -26 11 -11 16 -11 22 -1 8 14 3 40 -9 40
-3 -1 -11 -6 -17 -13z"/>
<path d="M330 975 c0 -8 6 -15 13 -15 8 0 7 -3 -3 -10 -10 -6 -6 -9 17 -8 24
1 30 5 25 17 -5 15 -4 15 14 0 26 -22 64 -22 64 -1 0 13 -2 14 -9 4 -7 -11 -9
-11 -14 2 -6 14 -50 17 -63 3 -3 -3 -13 -3 -21 0 -12 5 -12 7 -1 14 10 7 9 9
-4 9 -10 0 -18 -7 -18 -15z"/>
<path d="M571 983 c1 -16 18 -47 18 -35 1 6 8 12 16 12 8 0 15 -6 15 -12 0
-10 3 -9 9 1 6 9 11 10 15 2 4 -6 15 -11 24 -10 11 0 12 3 5 6 -7 2 -13 14
-14 26 0 12 -3 16 -6 9 -4 -9 -8 -10 -18 -2 -9 8 -15 8 -20 0 -3 -5 -12 -10
-18 -10 -7 0 -6 4 3 10 12 8 11 10 -7 10 -13 0 -23 -3 -22 -7z"/>
<path d="M697 983 c-12 -12 -7 -23 11 -23 14 0 15 -2 2 -10 -13 -8 -12 -10 3
-10 9 0 17 7 17 15 0 8 -5 15 -11 15 -5 0 -7 5 -4 10 7 11 -8 14 -18 3z"/>
<path d="M750 966 c0 -18 5 -23 23 -23 15 0 23 5 23 18 0 13 -3 15 -13 7 -10
-8 -13 -6 -13 6 0 9 -4 16 -10 16 -5 0 -10 -11 -10 -24z"/>
<path d="M987 972 c-2 -11 -1 -26 4 -33 5 -9 9 -10 9 -2 0 6 9 9 20 6 17 -4
20 -1 19 23 l-1 29 -8 -25 c-8 -24 -11 -24 -14 2 -2 20 -23 20 -29 0z"/>
<path d="M1077 976 c-11 -28 -8 -33 18 -33 15 0 25 5 25 13 0 8 -6 14 -14 14
-8 0 -16 5 -18 12 -3 7 -7 5 -11 -6z"/>
<path d="M1244 978 c-3 -5 -13 -7 -22 -6 -9 2 -18 -5 -20 -14 -2 -10 1 -18 7
-18 6 0 8 8 4 18 -6 16 -5 16 14 0 24 -22 33 -23 33 -3 0 26 48 19 53 -7 3
-18 5 -16 6 7 1 29 -1 31 -35 31 -19 0 -38 -4 -40 -8z"/>
<path d="M1464 976 c-8 -8 -7 -15 2 -24 17 -15 21 -15 27 2 8 20 -15 37 -29
22z"/>
<path d="M1540 975 c0 -8 6 -15 13 -15 9 0 9 -2 -1 -8 -7 -5 24 -9 68 -9 80
-1 80 -1 80 26 0 20 -2 23 -10 11 -5 -8 -10 -11 -10 -6 0 5 -6 3 -14 -3 -11
-10 -15 -8 -19 6 -4 14 -5 13 -6 -4 0 -13 -6 -23 -12 -23 -6 0 -9 6 -6 13 3 7
-5 13 -19 13 -13 1 -24 -2 -24 -7 0 -4 -7 -6 -16 -2 -13 5 -13 7 -2 14 10 7 9
9 -4 9 -10 0 -18 -7 -18 -15z"/>
<path d="M1721 963 c0 -16 3 -22 6 -15 2 6 11 12 18 12 7 0 16 -6 18 -12 4 -9
6 -8 6 3 1 18 -18 39 -36 39 -8 0 -13 -11 -12 -27z"/>
<path d="M1940 974 c0 -13 8 -24 20 -27 16 -4 20 0 20 21 0 21 -2 24 -10 12
-9 -13 -11 -13 -20 0 -8 12 -10 11 -10 -6z"/>
<path d="M814 971 c-2 -2 -4 -10 -4 -18 0 -20 40 -16 41 5 0 14 2 14 9 -3 5
-11 9 -14 9 -7 1 6 6 12 12 12 5 0 8 -4 5 -9 -3 -5 5 -8 18 -8 17 0 23 4 19
13 -4 10 0 12 11 8 9 -3 13 -10 10 -15 -3 -5 2 -9 10 -9 17 0 20 9 8 25 -8 12
-37 13 -48 2 -10 -10 -26 -9 -20 2 6 8 -71 10 -80 2z"/>
<path d="M1128 957 c5 -20 6 -20 13 -1 7 18 8 18 8 0 1 -15 4 -16 15 -7 11 9
15 9 19 -1 3 -7 6 -4 6 8 1 16 -5 20 -33 21 -29 1 -33 -2 -28 -20z"/>
<path d="M1830 970 c0 -5 -5 -9 -11 -7 -6 1 -13 -2 -15 -8 -2 -5 7 -11 21 -11
18 -2 25 3 25 17 0 10 -4 19 -10 19 -5 0 -10 -4 -10 -10z"/>
<path d="M1995 962 c-8 -20 -7 -22 15 -22 12 0 20 7 21 18 0 14 2 14 9 -3 8
-19 9 -19 9 1 1 17 -4 22 -24 20 -14 0 -27 -7 -30 -14z"/>
<path d="M2060 959 c0 -15 5 -19 15 -15 8 3 15 1 15 -4 0 -6 7 -10 15 -10 8 0
15 4 15 10 0 5 7 6 17 3 11 -4 14 -3 9 5 -4 7 -3 12 3 12 5 0 11 -6 13 -12 3
-7 7 -3 10 9 5 19 2 21 -31 19 -20 -1 -42 -5 -49 -10 -7 -4 -12 -2 -12 3 0 6
-4 11 -10 11 -5 0 -10 -9 -10 -21z"/>
<path d="M2240 959 c0 -10 5 -19 11 -19 5 0 8 4 4 9 -3 5 -1 12 5 16 5 3 10 0
10 -7 0 -19 38 -17 43 2 3 13 -4 16 -34 17 -32 1 -39 -3 -39 -18z"/>
<path d="M254 877 c-8 -9 -7 -16 4 -26 11 -11 16 -11 22 -1 8 14 3 40 -9 40
-3 -1 -11 -6 -17 -13z"/>
<path d="M330 864 c0 -23 2 -25 16 -13 13 10 17 10 25 -2 7 -12 9 -12 9 2 0
18 -19 39 -37 39 -7 0 -13 -11 -13 -26z"/>
<path d="M523 883 c-7 -2 -13 -11 -13 -19 0 -8 -4 -14 -10 -14 -5 0 -7 6 -5
13 4 8 -6 12 -32 11 -69 -3 -73 -4 -73 -18 0 -17 70 -18 82 -1 5 6 8 5 8 -2 0
-16 52 -17 68 -1 8 8 15 8 27 -2 12 -10 15 -10 15 1 0 11 2 11 10 -1 8 -13 10
-12 10 3 0 13 -9 17 -41 17 -24 0 -38 4 -34 10 7 11 6 11 -12 3z"/>
<path d="M630 875 c0 -8 6 -15 13 -15 8 0 7 -3 -3 -10 -10 -6 -6 -9 16 -8 22
1 30 6 31 20 2 16 -1 17 -13 8 -11 -10 -14 -9 -14 4 0 9 -7 16 -15 16 -8 0
-15 -7 -15 -15z"/>
<path d="M1464 877 c-8 -9 -7 -16 4 -26 11 -11 16 -11 22 -1 8 14 3 40 -9 40
-3 -1 -11 -6 -17 -13z"/>
<path d="M1540 866 c0 -26 17 -31 32 -11 5 7 8 6 8 -1 0 -6 20 -10 45 -10 25
-1 45 4 45 9 0 6 5 5 13 -1 17 -14 59 -10 65 6 3 10 -4 12 -28 9 -22 -4 -33
-1 -37 10 -6 14 -8 14 -18 -1 -12 -15 -13 -15 -20 1 -6 16 -8 16 -16 -4 -4
-13 -13 -23 -19 -23 -6 0 -8 5 -5 10 3 6 0 11 -7 12 -7 0 -17 2 -23 2 -5 1
-16 5 -22 9 -9 6 -13 1 -13 -17z"/>
<path d="M1939 888 c-11 -39 1 -69 14 -35 4 9 8 8 16 -3 9 -13 11 -13 11 1 0
16 -19 39 -32 39 -4 0 -8 -1 -9 -2z"/>
<path d="M2120 881 c-8 -5 -26 -11 -40 -13 -14 -1 -28 -7 -32 -13 -5 -6 -8 -3
-8 6 0 12 -7 15 -25 11 -27 -5 -29 -23 -4 -30 11 -3 11 -2 -1 7 -9 7 -10 11
-3 11 6 0 14 -4 18 -9 3 -6 23 -9 45 -8 23 1 34 4 27 9 -8 5 -7 8 6 8 9 0 17
-4 17 -10 0 -5 4 -10 10 -10 5 0 9 11 8 25 -1 14 -3 25 -3 25 0 0 -7 -5 -15
-9z"/>
<path d="M706 873 c-13 -13 -5 -33 14 -33 11 0 20 5 20 11 0 8 4 8 15 -1 8 -6
19 -9 25 -5 19 12 10 24 -19 23 -15 -1 -33 2 -38 5 -6 4 -13 4 -17 0z"/>
<path d="M2155 872 c-12 -13 -3 -32 15 -32 11 0 20 6 20 13 0 9 3 8 9 -2 5 -7
11 -9 14 -4 3 5 3 13 -1 18 -7 11 -49 15 -57 7z"/>
<path d="M2237 865 c-4 -9 -3 -13 2 -10 5 3 12 1 16 -5 3 -5 16 -10 28 -9 12
0 16 3 9 6 -6 2 -10 9 -6 14 8 14 24 11 24 -5 0 -21 35 -12 38 10 3 16 1 17
-7 4 -6 -8 -11 -10 -11 -5 0 16 -70 18 -70 3 0 -10 -2 -10 -9 0 -7 11 -9 10
-14 -3z"/>
<path d="M1787 856 c-15 -12 -11 -14 35 -15 32 0 55 4 60 12 6 9 8 9 8 0 0 -7
7 -13 15 -13 8 0 15 7 15 15 0 17 -75 22 -85 5 -3 -5 -11 -10 -16 -10 -6 0 -7
5 -4 10 9 14 -7 12 -28 -4z"/>
<path d="M257 777 c-3 -8 -1 -20 4 -28 8 -12 10 -12 18 0 10 15 4 41 -9 41 -4
0 -10 -6 -13 -13z"/>
<path d="M330 764 c0 -17 6 -20 40 -21 26 0 40 4 40 12 0 16 -33 25 -51 14 -8
-5 -17 -3 -21 4 -5 8 -8 5 -8 -9z"/>
<path d="M438 773 c-10 -2 -18 -12 -18 -21 0 -14 2 -14 9 -3 7 11 9 11 14 0 4
-10 6 -10 6 -1 1 6 6 12 12 12 5 0 7 -4 4 -10 -3 -5 -1 -10 5 -10 14 0 9 32
-5 35 -5 2 -18 1 -27 -2z"/>
<path d="M750 758 c0 -10 5 -18 11 -18 5 0 7 6 3 13 -6 10 -4 10 7 0 7 -7 23
-13 36 -13 13 0 23 6 23 13 0 8 4 7 10 -3 8 -13 10 -13 10 2 0 12 -11 17 -50
20 -42 2 -50 0 -50 -14z"/>
<path d="M1018 774 c-3 -3 -24 -5 -47 -6 -23 0 -41 -4 -41 -9 0 -17 5 -24 15
-20 6 2 21 4 35 4 14 1 28 6 32 12 5 6 8 5 8 -2 0 -7 11 -13 25 -13 30 0 33
15 6 30 -23 12 -26 12 -33 4z"/>
<path d="M1130 759 c0 -11 4 -19 10 -19 5 0 7 7 4 15 -4 8 -1 15 5 15 6 0 11
-6 11 -13 0 -19 37 -18 42 1 4 14 -3 18 -34 18 -31 1 -38 -2 -38 -17z"/>
<path d="M551 751 c0 -11 2 -12 6 -3 4 10 8 10 20 1 12 -10 16 -10 24 2 6 10
9 10 9 2 0 -7 5 -13 10 -13 6 0 10 7 10 15 0 11 -10 14 -40 13 -30 -1 -40 -5
-39 -17z"/>
<path d="M660 755 c0 -8 9 -15 19 -15 10 0 21 7 25 15 4 11 -1 15 -19 15 -16
0 -25 -6 -25 -15z"/>
<path d="M870 755 c0 -10 8 -14 22 -12 32 5 35 27 4 27 -16 0 -26 -6 -26 -15z"/>
<path d="M256 673 c-8 -21 10 -41 24 -27 11 11 3 44 -10 44 -4 0 -11 -8 -14
-17z"/>
<path d="M331 662 c-1 -20 3 -22 44 -20 25 0 45 6 45 12 0 6 5 4 10 -4 8 -12
10 -10 10 8 0 15 -4 21 -11 16 -7 -4 -25 -7 -40 -6 -16 0 -29 -4 -29 -9 0 -16
-18 -10 -23 9 -4 13 -5 11 -6 -6z"/>
<path d="M538 674 c-2 -2 -21 -4 -41 -6 -21 -1 -36 -7 -34 -13 5 -13 30 -14
39 0 5 6 8 6 8 -2 0 -20 38 -15 43 5 4 16 5 16 6 0 1 -20 41 -25 41 -5 0 8 4
7 10 -3 8 -12 10 -12 10 5 0 16 -7 20 -39 21 -22 1 -41 0 -43 -2z"/>
<path d="M827 674 c-3 -3 -34 -6 -69 -6 -35 0 -66 -6 -70 -12 -5 -7 -8 -6 -8
4 0 13 -1 13 -10 0 -6 -10 -10 -11 -10 -2 0 6 -4 12 -10 12 -5 0 -10 -6 -10
-14 0 -8 14 -16 38 -19 42 -5 61 1 41 14 -10 6 -10 9 -2 9 7 0 17 -8 22 -17
10 -17 10 -16 11 2 0 11 4 16 8 10 11 -16 54 -18 63 -3 7 11 11 10 19 -2 8
-12 10 -11 10 8 0 21 -10 29 -23 16z"/>
<path d="M970 670 c-8 -5 -18 -6 -22 -4 -4 3 -8 -2 -8 -10 0 -19 38 -17 45 3
7 18 3 22 -15 11z"/>
<path d="M787 222 c-23 -2 -37 -8 -34 -15 4 -14 65 -19 73 -6 3 5 10 7 15 4 5
-4 9 -2 9 3 0 14 -19 18 -63 14z"/>
<path d="M860 208 c0 -13 6 -18 17 -16 24 5 27 25 3 31 -15 4 -20 0 -20 -15z"/>
<path d="M940 219 c0 -5 -6 -6 -13 -3 -8 3 -14 -2 -14 -10 0 -15 22 -17 44 -3
6 4 14 3 18 -3 9 -15 25 -12 25 4 0 8 -13 16 -30 18 -16 3 -30 1 -30 -3z"/>
<path d="M1220 210 c0 -11 5 -20 10 -20 6 0 10 5 10 11 0 8 5 7 16 -2 13 -10
17 -10 25 2 5 8 9 9 9 4 0 -6 9 -11 20 -11 11 0 20 6 20 13 0 6 -8 11 -17 11
-10 -1 -35 2 -55 6 -34 6 -38 5 -38 -14z"/>
<path d="M1373 222 c-13 -2 -23 -10 -23 -18 0 -17 12 -18 29 -1 11 10 13 10 7
0 -4 -7 -3 -13 2 -13 12 0 24 28 14 33 -4 2 -17 1 -29 -1z"/>
<path d="M1446 221 c-16 -3 -31 -11 -33 -17 -4 -13 28 -15 45 -1 8 6 12 6 12
-3 0 -9 4 -9 17 1 9 8 14 9 10 3 -4 -7 3 -11 18 -11 14 0 28 3 31 8 2 4 16 4
29 -1 14 -5 25 -6 25 -2 0 4 11 7 24 7 13 0 22 -3 19 -7 -2 -5 3 -8 11 -8 18
0 22 26 6 32 -6 2 -42 1 -81 -2 -38 -3 -77 -3 -87 1 -9 3 -30 3 -46 0z"/>
<path d="M1696 214 c-9 -8 -16 -17 -16 -18 0 -2 20 -3 45 -4 28 0 45 4 45 11
0 8 3 8 8 2 11 -16 42 -17 42 -2 0 9 -14 14 -46 16 -26 0 -50 3 -54 6 -5 3
-16 -2 -24 -11z"/>
<path d="M1850 222 c-6 -2 -10 -12 -10 -23 0 -17 8 -19 100 -19 93 0 100 1
100 20 0 16 -7 20 -34 20 -19 0 -41 3 -50 6 -25 9 -19 -12 7 -24 18 -9 11 -11
-41 -10 -34 0 -64 4 -67 7 -2 4 14 6 36 5 24 -1 39 2 36 9 -3 10 -56 16 -77 9z"/>
<path d="M2133 221 c-24 -4 -30 -10 -24 -19 9 -15 20 -15 37 -1 6 5 14 6 18 2
14 -14 46 -13 46 2 0 8 -4 15 -9 15 -5 0 -15 2 -23 4 -7 2 -28 1 -45 -3z"/>
<path d="M2220 207 c0 -17 2 -18 17 -6 11 10 14 10 9 2 -4 -8 -2 -13 7 -13 23
0 15 28 -10 33 -18 3 -23 0 -23 -16z"/>
<path d="M664 201 c0 -12 4 -17 11 -12 5 4 22 6 38 5 16 -2 27 2 27 10 0 7
-16 13 -38 14 -32 2 -38 -1 -38 -17z"/>
<path d="M1020 211 c0 -10 24 -21 46 -21 10 0 12 5 8 13 -6 9 -5 9 7 1 14 -12
59 -11 78 0 5 4 14 -1 19 -10 10 -19 32 -11 32 12 0 11 -19 14 -95 14 -52 0
-95 -4 -95 -9z"/>
<path d="M1274 154 c3 -9 6 -19 7 -22 0 -4 4 2 9 13 7 15 9 16 9 4 1 -15 39
-34 49 -24 10 10 -8 34 -22 29 -8 -3 -17 -1 -21 5 -10 18 -38 13 -31 -5z"/>
<path d="M1367 157 c-10 -25 8 -40 32 -28 14 8 21 8 21 1 0 -5 10 -8 23 -6 12
3 28 5 35 5 6 1 12 7 12 14 0 9 -13 13 -45 11 -25 -1 -47 2 -50 7 -9 13 -22
11 -28 -4z"/>
<path d="M1528 163 c-18 -5 -26 -33 -9 -33 5 0 16 -2 23 -5 9 -4 14 2 15 15 2
23 -5 28 -29 23z"/>
<path d="M1597 164 c-4 -4 -7 -16 -7 -28 0 -15 3 -17 11 -9 8 8 20 8 36 2 18
-6 25 -5 29 6 9 24 -4 35 -31 25 -15 -6 -25 -5 -27 1 -2 6 -7 7 -11 3z"/>
<path d="M1260 71 c0 -23 19 -28 39 -8 8 6 11 7 8 1 -4 -6 9 -10 33 -11 24 0
41 4 44 13 4 11 -5 14 -37 14 -23 0 -52 3 -64 6 -19 5 -23 2 -23 -15z"/>
<path d="M1410 71 c0 -15 7 -19 43 -18 23 0 34 2 25 4 -10 3 -15 10 -11 19 4
10 -3 14 -26 14 -24 0 -31 -4 -31 -19z"/>
<path d="M1530 71 c0 -16 6 -19 37 -17 27 1 39 7 41 19 3 13 -3 17 -23 17 -14
0 -24 -4 -21 -8 3 -5 -1 -9 -9 -9 -8 0 -12 4 -9 9 3 4 0 8 -5 8 -6 0 -11 -9
-11 -19z"/>
</g>
</svg>
